<mxfile host="Electron" agent="Mozilla/5.0 (Windows NT 10.0; Win64; x64) AppleWebKit/537.36 (KHTML, like Gecko) draw.io/25.0.2 Chrome/128.0.6613.186 Electron/32.2.5 Safari/537.36" version="25.0.2">
  <diagram name="Page-1" id="ys-Hri1ApyIMiKLrZwE7">
    <mxGraphModel dx="1765" dy="1126" grid="1" gridSize="10" guides="1" tooltips="1" connect="1" arrows="1" fold="1" page="1" pageScale="1" pageWidth="850" pageHeight="1100" math="0" shadow="0">
      <root>
        <mxCell id="0" />
        <mxCell id="1" parent="0" />
        <mxCell id="skaA1Zrt6LJumLNAhpnK-6" value="&lt;font style=&quot;font-size: 29px;&quot;&gt;1000x1000&lt;/font&gt;" style="rounded=0;whiteSpace=wrap;html=1;verticalAlign=top;fillColor=#f5f5f5;fontColor=#333333;strokeColor=#666666;" vertex="1" parent="1">
          <mxGeometry x="620" y="310" width="1000" height="1000" as="geometry" />
        </mxCell>
        <mxCell id="skaA1Zrt6LJumLNAhpnK-1" value="SIDE&lt;div&gt;580x440&lt;/div&gt;" style="rounded=0;whiteSpace=wrap;html=1;" vertex="1" parent="1">
          <mxGeometry x="620" y="310" width="440" height="580" as="geometry" />
        </mxCell>
        <mxCell id="skaA1Zrt6LJumLNAhpnK-2" value="FRONT_BACK&lt;div&gt;560x240&lt;/div&gt;" style="rounded=0;whiteSpace=wrap;html=1;direction=south;" vertex="1" parent="1">
          <mxGeometry x="1060" y="550" width="560" height="240" as="geometry" />
        </mxCell>
        <mxCell id="skaA1Zrt6LJumLNAhpnK-3" value="ROOF&lt;div&gt;400x200&lt;/div&gt;" style="rounded=0;whiteSpace=wrap;html=1;" vertex="1" parent="1">
          <mxGeometry x="620" y="910" width="200" height="400" as="geometry" />
        </mxCell>
        <mxCell id="skaA1Zrt6LJumLNAhpnK-4" value="FRONT_BACK&lt;div&gt;560x240&lt;/div&gt;" style="rounded=0;whiteSpace=wrap;html=1;direction=south;" vertex="1" parent="1">
          <mxGeometry x="1060" y="310" width="560" height="240" as="geometry" />
        </mxCell>
        <mxCell id="skaA1Zrt6LJumLNAhpnK-5" value="SIDE&lt;div&gt;580x440&lt;/div&gt;" style="rounded=0;whiteSpace=wrap;html=1;direction=south;" vertex="1" parent="1">
          <mxGeometry x="1040" y="870" width="580" height="440" as="geometry" />
        </mxCell>
        <mxCell id="skaA1Zrt6LJumLNAhpnK-7" value="&lt;font style=&quot;font-size: 40px;&quot;&gt;SIDE: Moze biti 10 mm kraca u visini&lt;/font&gt;" style="text;html=1;align=center;verticalAlign=middle;resizable=0;points=[];autosize=1;strokeColor=none;fillColor=none;fontStyle=2" vertex="1" parent="1">
          <mxGeometry x="605" y="230" width="670" height="60" as="geometry" />
        </mxCell>
      </root>
    </mxGraphModel>
  </diagram>
</mxfile>
